:FULLY-SPECIFIED
:FORCE-ALL-JOINTS-BE-3DOF
:DEGREES
97
root 9.40665 16.2928 -23.653 3.3379 -2.32564 3.81586
lfemur -5.10329 0.469408 -29.318
ltibia 21.5154 0 0
lfoot -18.4381 7.38452 0
ltoes -0.897712 0 0
rfemur -32.9628 3.40832 15.9753
rtibia 46.344 0 0
rfoot -20.7959 -10.6863 0
rtoes -18.6273 0 0
lowerback -6.97427 -2.06944 -4.61442
upperback -0.285972 -2.47509 2.17198
thorax 3.91133 -1.33448 4.59984
lowerneck -21.0382 -4.92334 -12.6237
upperneck 19.7564 -5.5519 11.2405
head 10.4944 -2.21187 5.30847
lclavicle -1.28092e-14 2.8625e-14 0
lhumerus -20.563 -21.3389 87.3059
lradius 34.9489 0 0
lwrist 8.70795 0 0
lhand -15.5568 -25.3211 0
lfingers 7.12502 0 0
lthumb 10.6277 4.39014 0
rclavicle -1.28092e-14 2.8625e-14 0
rhumerus -43.5016 11.8454 -87.1022
rradius 38.2832 0 0
rwrist -21.7116 0 0
rhand -30.6228 -23.9346 0
rfingers 7.12502 0 0
rthumb -3.91891 -53.8783 0
98
root 9.40858 16.291 -23.4939 3.29705 -1.81312 3.88136
lfemur -3.71856 0.346008 -29.3602
ltibia 20.0933 0 0
lfoot -18.2063 7.07886 0
ltoes -1.08945 0 0
rfemur -33.5133 3.82833 15.5564
rtibia 44.7441 0 0
rfoot -20.8049 -10.2172 0
rtoes -18.4973 0 0
lowerback -7.1031 -2.15406 -4.60488
upperback -0.244353 -2.58187 2.11962
thorax 4.0356 -1.39034 4.52373
lowerneck -20.8499 -4.96239 -12.6686
upperneck 19.8298 -5.61268 11.2023
head 10.4945 -2.25358 5.29439
lclavicle -1.46212e-14 2.59966e-14 0
lhumerus -20.4753 -21.9861 87.4351
lradius 35.6697 0 0
lwrist 9.20837 0 0
lhand -15.7231 -25.4494 0
lfingers 7.12502 0 0
lthumb 10.4673 4.27163 0
rclavicle -1.46212e-14 2.59966e-14 0
rhumerus -43.6169 11.625 -86.9775
rradius 38.0931 0 0
rwrist -21.591 0 0
rhand -30.5425 -24.0326 0
rfingers 7.12502 0 0
rthumb -3.84142 -53.9775 0
99
root 9.4095 16.2897 -23.2908 3.26356 -1.18796 3.92557
lfemur -1.85482 0.274811 -29.3458
ltibia 18.0555 0 0
lfoot -17.8013 6.62841 0
ltoes -1.44521 0 0
rfemur -34.1608 4.45641 15.0063
rtibia 42.7281 0 0
rfoot -20.8215 -9.60487 0
rtoes -18.1512 0 0
lowerback -7.21592 -2.25335 -4.55125
upperback -0.248674 -2.71184 2.0632
thorax 4.10374 -1.45445 4.41605
lowerneck -20.596 -5.00673 -12.7472
upperneck 19.9869 -5.68885 11.1783
head 10.5165 -2.30588 5.29198
lclavicle -1.73887e-14 2.04086e-14 0
lhumerus -20.5461 -22.727 87.654
lradius 36.5748 0 0
lwrist 9.84255 0 0
lhand -15.729 -25.5633 0
lfingers 7.12502 0 0
lthumb 10.4616 4.15843 0
rclavicle -1.73887e-14 2.04086e-14 0
rhumerus -43.8697 11.3545 -86.8411
rradius 37.8655 0 0
rwrist -21.3826 0 0
rhand -30.3639 -24.111 0
rfingers 7.12502 0 0
rthumb -3.66894 -54.0587 0
100
root 9.40978 16.2892 -23.0868 3.235 -0.570934 3.94905
lfemur 0.0494219 0.242927 -29.2976
ltibia 15.9371 0 0
lfoot -17.3584 6.14759 0
ltoes -1.85842 0 0
rfemur -34.7835 5.13192 14.4519
rtibia 40.7091 0 0
rfoot -20.8391 -8.97618 0
rtoes -17.6854 0 0
lowerback -7.30614 -2.34796 -4.46825
upperback -0.27708 -2.8386 2.00706
thorax 4.13248 -1.51496 4.29289
lowerneck -20.3279 -5.05072 -12.8373
upperneck 20.1708 -5.76844 11.1681
head 10.5468 -2.35965 5.29721
lclavicle -2.03989e-14 1.35174e-14 0
lhumerus -20.694 -23.441 87.889
lradius 37.4809 0 0
lwrist 10.4841 0 0
lhand -15.6377 -25.6596 0
lfingers 7.12502 0 0
lthumb 10.5497 4.0572 0
rclavicle -2.03989e-14 1.35174e-14 0
rhumerus -44.1695 11.0781 -86.7157
rradius 37.642 0 0
rwrist -21.1472 0 0
rhand -30.1391 -24.1658 0
rfingers 7.12502 0 0
rthumb -3.45185 -54.1172 0
101
root 9.40981 16.2896 -22.9246 3.20894 -0.0828285 3.9524
lfemur 1.55564 0.237462 -29.2387
ltibia 14.2736 0 0
lfoot -17.0127 5.75082 0
ltoes -2.2225 0 0
rfemur -35.2599 5.69421 14.02
rtibia 39.1002 0 0
rfoot -20.8508 -8.45803 0
rtoes -17.1961 0 0
lowerback -7.36715 -2.41853 -4.37058
upperback -0.30772 -2.93572 1.95555
thorax 4.13857 -1.56005 4.17033
lowerneck -20.0973 -5.0887 -12.9163
upperneck 20.3246 -5.83947 11.1714
head 10.5721 -2.40574 5.306
lclavicle -2.29391e-14 6.97955e-15 0
lhumerus -20.8377 -24.0072 88.0665
lradius 38.205 0 0
lwrist 11.0068 0 0
lhand -15.5123 -25.7354 0
lfingers 7.12502 0 0
lthumb 10.6707 3.97454 0
rclavicle -2.29391e-14 6.97955e-15 0
rhumerus -44.4257 10.8401 -86.6242
rradius 37.464 0 0
rwrist -20.9457 0 0
rhand -29.9203 -24.1933 0
rfingers 7.12502 0 0
rthumb -3.24048 -54.1481 0
102
root 9.40995 16.2913 -22.8474 3.18293 0.155579 3.9362
lfemur 2.22531 0.245523 -29.1919
ltibia 13.6001 0 0
lfoot -16.8994 5.55251 0
ltoes -2.43089 0 0
rfemur -35.4685 5.98264 13.8374
rtibia 38.3145 0 0
rfoot -20.8499 -8.17732 0
rtoes -16.7797 0 0
lowerback -7.39237 -2.44573 -4.27294
upperback -0.318742 -2.9768 1.913
thorax 4.13873 -1.57787 4.06446
lowerneck -19.9557 -5.11502 -12.9618
upperneck 20.3914 -5.88998 11.1878
head 10.5788 -2.43503 5.31431
lclavicle -2.42963e-14 2.45168e-15 0
lhumerus -20.8957 -24.3051 88.113
lradius 38.5638 0 0
lwrist 11.2841 0 0
lhand -15.4158 -25.7873 0
lfingers 7.12502 0 0
lthumb 10.7636 3.91709 0
rclavicle -2.42963e-14 2.45168e-15 0
rhumerus -44.5481 10.6844 -86.5892
rradius 37.373 0 0
rwrist -20.8392 0 0
rhand -29.7595 -24.1893 0
rfingers 7.12502 0 0
rthumb -3.08521 -54.1467 0
103
root 9.41057 16.2944 -22.8979 3.15454 0.0235091 3.90101
lfemur 1.61992 0.25422 -29.1801
ltibia 14.4519 0 0
lfoot -17.1536 5.66707 0
ltoes -2.37701 0 0
rfemur -35.2877 5.83656 14.0309
rtibia 38.7651 0 0
rfoot -20.8297 -8.26092 0
rtoes -16.5326 0 0
lowerback -7.37519 -2.41019 -4.19004
upperback -0.288292 -2.93543 1.88376
thorax 4.1497 -1.55656 3.99138
lowerneck -19.9545 -5.12402 -12.9514
upperneck 20.3143 -5.90799 11.217
head 10.5535 -2.4384 5.31809
lclavicle -2.37579e-14 1.59028e-15 0
lhumerus -20.7865 -24.2139 87.9549
lradius 38.3741 0 0
lwrist 11.1897 0 0
lhand -15.4116 -25.8125 0
lfingers 7.12502 0 0
lthumb 10.7677 3.89148 0
rclavicle -2.37579e-14 1.59028e-15 0
rhumerus -44.446 10.6554 -86.6336
rradius 37.4106 0 0
rwrist -20.8886 0 0
rhand -29.7089 -24.1501 0
rfingers 7.12502 0 0
rthumb -3.03638 -54.1082 0
104
root 9.40805 16.2867 -22.7315 3.22872 0.462035 3.97361
lfemur 3.46503 0.265217 -29.1639
ltibia 11.969 0 0
lfoot -16.4519 5.2673 0
ltoes -2.62211 0 0
rfemur -35.8356 6.39084 13.4197
rtibia 37.2945 0 0
rfoot -20.9084 -7.96651 0
rtoes -16.9228 0 0
lowerback -7.41866 -2.51147 -4.34998
upperback -0.388828 -3.05828 1.94356
thorax 4.09656 -1.61728 4.13066
lowerneck -19.891 -5.11224 -13.0034
upperneck 20.5506 -5.88564 11.1583
head 10.6245 -2.44293 5.31645
lclavicle -2.52761e-14 1.19823e-15 0
lhumerus -21.171 -24.5462 88.4152
lradius 39.0008 0 0
lwrist 11.5374 0 0
lhand -15.292 -25.7532 0
lfingers 7.12502 0 0
lthumb 10.883 3.9445 0
rclavicle -2.52761e-14 1.19823e-15 0
rhumerus -44.7856 10.6484 -86.4957
rradius 37.2674 0 0
rwrist -20.696 0 0
rhand -29.7375 -24.2165 0
rfingers 7.12502 0 0
rthumb -3.06401 -54.1742 0
